<svg xmlns="http://www.w3.org/2000/svg" width="91.286" height="60.857" viewBox="0 0 91.286 60.857"><defs><style>.a{fill:#a62a22;}</style></defs><path class="a" d="M20.286,19.714H71V50.143H20.286ZM83.679,34.929a7.607,7.607,0,0,0,7.607,7.607V57.75a7.607,7.607,0,0,1-7.607,7.607H7.607A7.607,7.607,0,0,1,0,57.75V42.536a7.607,7.607,0,0,0,7.607-7.607A7.607,7.607,0,0,0,0,27.321V12.107A7.607,7.607,0,0,1,7.607,4.5H83.679a7.607,7.607,0,0,1,7.607,7.607V27.321A7.607,7.607,0,0,0,83.679,34.929ZM76.071,18.446a3.8,3.8,0,0,0-3.8-3.8H19.018a3.8,3.8,0,0,0-3.8,3.8V51.411a3.8,3.8,0,0,0,3.8,3.8h53.25a3.8,3.8,0,0,0,3.8-3.8Z" transform="translate(0 -4.5)"/></svg>