<svg xmlns="http://www.w3.org/2000/svg" width="367.063" height="189.659" viewBox="0 0 367.063 189.659"><defs><style>.a{fill:#e6e6e6;}.b{fill:#3f3d56;}.c{opacity:0.2;}.d{fill:#ff6584;}.e{fill:#a62a22;}</style></defs><g transform="translate(0 0)"><ellipse class="a" cx="183.532" cy="5.134" rx="183.532" ry="5.134" transform="translate(0 159.254)"/><path class="b" d="M807.506,425.963c-.232,0-.464.006-.7.006s-.467,0-.7-.006c-12.286-.279-21.19-7.956-18.924-16.009l5.527-19.647,1.4-4.971,24.762.422,1.5,4.863,5.924,19.143C828.807,417.862,819.9,425.684,807.506,425.963Z" transform="translate(-526.165 -317.203)"/><path class="c" d="M828.738,390.62a27.332,27.332,0,0,1-27.663-.314l1.4-4.971,24.762.422Z" transform="translate(-534.528 -317.203)"/><path class="b" d="M864.966,389.23c1.07-3.987,4.585-9.737,14.444-16.671,17.195-12.094,6.937-21.163,6.493-21.543-.932-.8-.795-1.692.32-2a4.634,4.634,0,0,1,3.73.868c.557.46,13.4,11.429-6,25.075-17.462,12.282-13.749,20.3-13.707,20.377.468.858-.282,1.544-1.677,1.534a4.17,4.17,0,0,1-3.376-1.568C865.093,395.123,863.97,392.941,864.966,389.23Z" transform="translate(-571.801 -295.827)"/><path class="b" d="M803.471,464.944a2.857,2.857,0,0,1-2.857-2.857V449.706a2.857,2.857,0,1,1,5.714,0v12.381a2.857,2.857,0,0,1-2.857,2.857Z" transform="translate(-534.257 -353.32)"/><path class="b" d="M789.851,406.362a2.857,2.857,0,0,1-3.79,1.4l-11.248-5.175A2.857,2.857,0,1,1,777.2,397.4l11.247,5.175a2.857,2.857,0,0,1,1.4,3.79Z" transform="translate(-518.132 -324.132)"/><path class="b" d="M856.456,406.362a2.857,2.857,0,0,0,3.79,1.4l11.247-5.175A2.857,2.857,0,1,0,869.1,397.4l-11.248,5.175A2.857,2.857,0,0,0,856.456,406.362Z" transform="translate(-566.89 -324.132)"/><path class="b" d="M858.834,464.944a2.857,2.857,0,0,0,2.857-2.857V449.706a2.857,2.857,0,0,0-5.714,0v12.381A2.857,2.857,0,0,0,858.834,464.944Z" transform="translate(-566.763 -353.32)"/><path class="b" d="M819.768,263.962a2.81,2.81,0,0,0,.567-2.233l-1.555-9.148-1.555-9.148a2.854,2.854,0,0,0-4.635-1.719l-7.145,5.92-4.3,3.567a27.121,27.121,0,0,0-8.689-.131l-4.146-3.436-7.145-5.921a2.854,2.854,0,0,0-4.635,1.719l-1.555,9.148-1.555,9.148a2.827,2.827,0,0,0,.124,1.434,27.3,27.3,0,1,0,46.227.8Z" transform="translate(-515.757 -232.492)"/><path class="a" d="M791.873,251.728a1.422,1.422,0,0,0-.5.09,1.4,1.4,0,0,0-.9,1.088L788.589,264a1.413,1.413,0,0,0,1.885,1.562l10.55-3.914a1.413,1.413,0,0,0,.41-2.413h0l-8.664-7.18A1.4,1.4,0,0,0,791.873,251.728Z" transform="translate(-527.185 -238.757)"/><path class="a" d="M861.843,251.728a1.4,1.4,0,0,0-.9.327l-8.664,7.18a1.413,1.413,0,0,0,.41,2.413l10.55,3.914A1.413,1.413,0,0,0,865.127,264l-1.886-11.093a1.4,1.4,0,0,0-.9-1.088A1.423,1.423,0,0,0,861.843,251.728Z" transform="translate(-564.293 -238.757)"/><circle class="a" cx="3.809" cy="3.809" r="3.809" transform="translate(276.833 45.592)"/><ellipse class="b" cx="2.54" cy="0.952" rx="2.54" ry="0.952" transform="translate(278.103 46.544)"/><path class="d" d="M675.14,125.04h3.492v4.286a1.746,1.746,0,0,1-1.746,1.746h0a1.746,1.746,0,0,1-1.746-1.746Z" transform="translate(-396.402 -73.416)"/><path class="b" d="M831.851,240.69c-.183.38-.361.764-.528,1.155a27.174,27.174,0,0,0-1.92,14.592c.357-.519.733-1.059,1.115-1.605A27.156,27.156,0,0,1,831.851,240.69Z" transform="translate(-550.996 -232.276)"/><path class="b" d="M838.771,249.148c-.183.38-.361.764-.528,1.155a27.172,27.172,0,0,0-1.92,14.592c.357-.519.733-1.059,1.115-1.605A27.156,27.156,0,0,1,838.771,249.148Z" transform="translate(-555.059 -237.242)"/><path class="e" d="M829.292,398.57l-.4-5.119-.4-5.119a1.579,1.579,0,0,0-2.469-1.178l-4.232,2.908-3.09,2.123a2.1,2.1,0,0,0-3.2,0l-3.09-2.123-4.231-2.908a1.579,1.579,0,0,0-2.469,1.178l-.4,5.119-.4,5.119a1.579,1.579,0,0,0,2.254,1.549l4.634-2.211,3.808-1.816a2.106,2.106,0,0,0,3,0l3.808,1.816,4.634,2.211a1.579,1.579,0,0,0,2.254-1.549Z" transform="translate(-536.772 -318.109)"/><circle class="a" cx="0.952" cy="0.952" r="0.952" transform="translate(274.611 44.322)"/><circle class="a" cx="0.952" cy="0.952" r="0.952" transform="translate(284.769 44.322)"/><path class="b" d="M361.557,405.583c.232,0,.464.006.7.006s.467,0,.7-.006c12.286-.279,21.19-7.956,18.924-16.009l-5.527-19.647-1.4-4.971-24.762.422-1.5,4.863-5.924,19.143C340.256,397.482,349.16,405.3,361.557,405.583Z" transform="translate(-265.185 -305.237)"/><path class="c" d="M357.715,370.241a27.331,27.331,0,0,0,27.663-.314l-1.4-4.972-24.762.422Z" transform="translate(-274.213 -305.237)"/><path class="b" d="M295.214,381.727c-2.673-3.145-8.311-6.839-20.189-8.887-20.716-3.574-15.326-16.159-15.087-16.693.5-1.119-.006-1.869-1.144-1.669a4.634,4.634,0,0,0-3,2.381c-.306.654-7.222,16.064,16.154,20.095,21.038,3.629,21.113,12.464,21.108,12.552-.056.975.916,1.274,2.173.669a4.169,4.169,0,0,0,2.38-2.861C297.62,387.108,297.7,384.655,295.214,381.727Z" transform="translate(-213.674 -299.067)"/><path class="b" d="M414.2,444.564a2.857,2.857,0,0,0,2.857-2.857V429.326a2.857,2.857,0,0,0-5.714,0v12.381a2.857,2.857,0,0,0,2.857,2.857Z" transform="translate(-305.699 -341.354)"/><path class="b" d="M411.82,385.983a2.857,2.857,0,0,0,3.79,1.4l11.247-5.175a2.857,2.857,0,0,0-2.388-5.191l-11.247,5.175A2.857,2.857,0,0,0,411.82,385.983Z" transform="translate(-305.826 -312.166)"/><path class="b" d="M345.215,385.983a2.857,2.857,0,0,1-3.79,1.4l-11.248-5.175a2.857,2.857,0,0,1,2.388-5.191l11.247,5.175A2.857,2.857,0,0,1,345.215,385.983Z" transform="translate(-257.068 -312.166)"/><path class="b" d="M358.835,444.564a2.857,2.857,0,0,1-2.857-2.857V429.326a2.857,2.857,0,1,1,5.714,0v12.381a2.857,2.857,0,0,1-2.857,2.857Z" transform="translate(-273.193 -341.354)"/><path class="b" d="M374.6,242.784a2.826,2.826,0,0,0,.124-1.434l-1.555-9.148-1.555-9.148a2.854,2.854,0,0,0-4.635-1.719l-7.145,5.921-4.146,3.436a27.123,27.123,0,0,0-8.69.131l-4.3-3.567-7.145-5.921a2.854,2.854,0,0,0-4.635,1.719l-1.555,9.148L327.8,241.35a2.81,2.81,0,0,0,.567,2.233,27.305,27.305,0,1,0,46.227-.8Z" transform="translate(-254.67 -220.527)"/><path class="a" d="M414,231.675l-8.664,7.18h0a1.413,1.413,0,0,0,.41,2.413l10.55,3.914a1.413,1.413,0,0,0,1.885-1.562L416.3,232.526a1.4,1.4,0,0,0-.9-1.088,1.423,1.423,0,0,0-.5-.09A1.4,1.4,0,0,0,414,231.675Z" transform="translate(-301.875 -226.791)"/><path class="a" d="M344.434,231.438a1.4,1.4,0,0,0-.9,1.088l-1.886,11.093a1.413,1.413,0,0,0,1.885,1.562l10.55-3.914a1.413,1.413,0,0,0,.41-2.413l-8.664-7.18a1.4,1.4,0,0,0-.9-.327A1.422,1.422,0,0,0,344.434,231.438Z" transform="translate(-264.767 -226.791)"/><circle class="a" cx="3.809" cy="3.809" r="3.809" transform="translate(93.261 37.178)"/><ellipse class="b" cx="2.54" cy="0.952" rx="2.54" ry="0.952" transform="translate(94.531 38.131)"/><path class="d" d="M1.746,0h0A1.746,1.746,0,0,1,3.492,1.746V6.032H0V1.746A1.746,1.746,0,0,1,1.746,0Z" transform="translate(98.975 49.242) rotate(180)"/><path class="b" d="M390.066,220.31c.183.38.361.764.528,1.155a27.173,27.173,0,0,1,1.92,14.592c-.357-.519-.733-1.059-1.115-1.605A27.156,27.156,0,0,0,390.066,220.31Z" transform="translate(-293.208 -220.31)"/><path class="b" d="M383.146,228.768c.183.38.361.764.528,1.155a27.173,27.173,0,0,1,1.92,14.592c-.357-.519-.733-1.059-1.115-1.605A27.156,27.156,0,0,0,383.146,228.768Z" transform="translate(-289.145 -225.276)"/><path class="e" d="M361.8,243.629l.4-5.119.4-5.119a1.579,1.579,0,0,1,2.469-1.178l4.232,2.908,3.09,2.123a2.1,2.1,0,0,1,3.2,0l3.09-2.123,4.232-2.908a1.579,1.579,0,0,1,2.469,1.178l.4,5.119.4,5.119a1.579,1.579,0,0,1-2.254,1.549l-4.634-2.211-3.808-1.816a2.106,2.106,0,0,1-3,0l-3.808,1.816-4.634,2.211a1.579,1.579,0,0,1-2.254-1.549Z" transform="translate(-276.611 -227.137)"/><path class="a" d="M400.575,308.238c0,.526.426,0,.952,0s.952.526.952,0a.952.952,0,1,0-1.9,0Z" transform="translate(-299.378 -271.377)"/><path class="a" d="M377.874,308.238c0,.526-.426,0-.952,0s-.952.526-.952,0a.952.952,0,1,1,1.9,0Z" transform="translate(-284.931 -271.377)"/><path class="b" d="M438,254.842v-6.054H407.736V309.7H438V303.65H413.79V254.842Z" transform="translate(-239.398 -146.074)"/><path class="e" d="M672.253,469.1v60.915h30.268V469.1Zm24.215,54.862H678.307V475.152h18.161Z" transform="translate(-458.891 -366.384)"/><path class="e" d="M304.735,304.188V249.7h-6.054v60.537h30.268v-6.054Z" transform="translate(-175.368 -146.612)"/><path class="b" d="M222.644,254.842v-6.054H192.376V309.7h30.268V303.65H198.43V282.083h24.215V276.03H198.43V254.842Z" transform="translate(-112.952 -146.074)"/><path class="e" d="M796.326,254.842v-6.054H766.058V309.7h30.268V303.65H772.112V282.083h24.215V276.03H772.112V254.842Z" transform="translate(-449.784 -146.074)"/><path class="b" d="M88.275,249.436v50.032L72.313,283.507l-.036.037-.034-.034L55.926,299.828V249.247H49.872v60.537h6.054v-1.4L72.28,292.034l15.995,16v1.943h6.054V249.436Z" transform="translate(-29.282 -146.343)"/><path class="b" d="M662.873,249.436v1.395l-16.354,16.354-16-15.995v-1.943H624.47v60.537h6.054V259.751l15.962,15.962.037-.037.033.033,16.318-16.317v50.581h6.053V249.436Z" transform="translate(-366.652 -146.343)"/><circle class="e" cx="3.716" cy="3.716" r="3.716" transform="translate(134.623 58.37)"/><circle class="e" cx="3.716" cy="3.716" r="3.716" transform="translate(42.969 99.656)"/><circle class="e" cx="3.716" cy="3.716" r="3.716" transform="translate(116.458 182.228)"/><circle class="e" cx="3.716" cy="3.716" r="3.716" transform="translate(209.764 69.517)"/><circle class="e" cx="3.716" cy="3.716" r="3.716" transform="translate(319.172 178.925)"/><circle class="e" cx="3.716" cy="3.716" r="3.716" transform="translate(322.887 81.49)"/><circle class="e" cx="3.716" cy="3.716" r="3.716" transform="translate(275.821 148.373)"/></g></svg>