<svg xmlns="http://www.w3.org/2000/svg" width="64.238" height="60.857" viewBox="0 0 64.238 60.857"><defs><style>.a{fill:#a62a22;}</style></defs><path class="a" d="M65.357,55.214V58.6A6.782,6.782,0,0,1,58.6,65.357H11.262A6.76,6.76,0,0,1,4.5,58.6V11.262A6.76,6.76,0,0,1,11.262,4.5H58.6a6.782,6.782,0,0,1,6.762,6.762v3.381H34.929A6.76,6.76,0,0,0,28.167,21.4V48.452a6.76,6.76,0,0,0,6.762,6.762ZM34.929,48.452h33.81V21.4H34.929ZM48.452,40a5.071,5.071,0,1,1,5.071-5.071A5.065,5.065,0,0,1,48.452,40Z" transform="translate(-4.5 -4.5)"/></svg>